<?xml version="1.0" encoding="UTF-8"?>
<svg id="Layer_2" data-name="Layer 2" xmlns="http://www.w3.org/2000/svg" viewBox="0 0 207.02 79.27">
  <defs>
    <style>
      .cls-1 {
        fill: #f6f6f6;
      }

      .cls-2 {
        fill: #efeeed;
      }
    </style>
  </defs>
  <g id="Layer_1-2" data-name="Layer 1">
    <g>
      <g>
        <path class="cls-2" d="M23.84,63.91l-5.29,15.36h-1.54l-2.24-6.91-2.13-6.5-4.43,13.41h-1.49L1.46,63.91h1.38l2.74,8.21,1.87,5.51,4.5-13.72h1.38l4.46,13.76,4.67-13.76h1.38Z"/>
        <path class="cls-2" d="M60.06,78.02v1.25h-10.95v-15.36h10.69v1.23h-9.39v5.75h8.98v1.23h-8.98v5.9h9.66Z"/>
        <path class="cls-2" d="M96.45,75.54h-9.13l-1.67,3.73h-1.4l6.89-15.36h1.49l6.89,15.36h-1.43l-1.65-3.73Zm-8.58-1.23h8.03l-4.02-9.04-4.02,9.04Z"/>
        <path class="cls-2" d="M124.59,63.91h1.29v14.11h8.65v1.25h-9.94v-15.36Z"/>
        <path class="cls-2" d="M167.74,65.16h-5.51v14.11h-1.29v-14.11h-5.51v-1.25h12.31v1.25Z"/>
        <path class="cls-2" d="M204.92,63.91v15.36h-1.29v-7.24h-9.72v7.24h-1.29v-15.36h1.29v6.87h9.72v-6.87h1.29Z"/>
      </g>
      <g>
        <path class="cls-1" d="M17.46,18.64c-3.7,.56-8.73,4.4-8.73,12.43,0,9.15,4.75,12.08,9.5,12.08,3.84,0,7.26-1.68,8.73-3.77l.35,.28c-1.19,4.05-4.82,10.13-13.55,10.13S0,43.01,0,34.98c0-9.91,9.15-16.34,17.46-16.9v.56Zm5.03,.07c2.23,0,4.12,1.89,4.12,4.12s-1.89,4.19-4.12,4.19-4.19-1.88-4.19-4.19,1.89-4.12,4.19-4.12Z"/>
        <path class="cls-1" d="M32.82,9.29c0-2.3-.63-3.63-3.35-5.1v-.42L41.69,0l.14,.14c-.07,2.86-.21,6.91-.21,9.71V42.94c0,4.12,1.05,5.31,4.05,5.79v.49H28.84v-.49c3.21-.49,3.98-1.54,3.98-5.79V9.29Z"/>
        <path class="cls-1" d="M63.54,44.97v.28c-.63,1.75-3.49,4.54-7.47,4.54-4.96,0-7.54-3.35-7.54-7.33,0-3.56,1.89-5.8,2.86-6.14,1.4-.56,8.03-2.44,11.52-3.28v.49c-1.68,.63-3.7,1.47-4.68,2.65-.7,1.05-1.12,2.58-1.12,4.12,0,3.7,1.19,5.31,3.84,5.31,.91,0,2.16-.35,2.58-.63Zm-9.29-22.27c2.02,0,3.7,1.68,3.7,3.7s-1.68,3.77-3.7,3.77-3.7-1.68-3.7-3.77,1.61-3.7,3.7-3.7Zm.84-1.61c2.09-1.54,6-3.07,8.94-3.07,6.49,0,9.43,3.14,9.43,8.94v15.71c0,2.23,.84,3.07,2.65,3.07,.7,0,1.54-.21,2.02-.49v.35c-.84,1.96-3.14,4.19-7.05,4.19-4.12,0-6.35-2.51-6.35-7.12v-15.29c0-4.33-3.49-6.08-9.64-6.08v-.21Z"/>
        <path class="cls-1" d="M92.31,43.01c0,4.12,1.68,5.31,4.68,5.72v.49h-17.46v-.49c3.21-.49,4.05-1.54,4.05-5.79v-15.71c0-2.3-.7-3.63-3.35-5.03v-.42l11.94-3.84,.14,.14v24.93Zm4.75-18.78c0-1.05,.42-2.23,.91-2.72-.07-.14-.35-.21-.56-.21-.98,0-2.37,.7-3.42,2.58v-.28c.84-2.79,3.7-5.59,6.77-5.59,3.56,0,5.45,2.09,5.45,5.31s-2.03,5.03-4.82,5.03c-2.51,0-4.33-1.68-4.33-4.12Z"/>
        <path class="cls-1" d="M112.21,27.51c0-2.44-.91-3.49-1.89-4.26-.42-.35-1.26-.91-1.68-1.12v-.35l12.36-3.84,.14,.14c-.07,2.86-.21,6.91-.21,9.71v15.15c0,4.12,1.19,5.31,4.26,5.79v.49h-17.04v-.49c3.21-.49,4.05-1.54,4.05-5.79v-15.43Zm4.26-24.37c2.72,0,5.03,2.09,5.03,4.82s-2.3,4.82-5.03,4.82-4.96-2.09-4.96-4.82,2.23-4.82,4.96-4.82Z"/>
        <path class="cls-1" d="M130.57,41.48V22.27h-3.7v-.98l11.73-10.61,.77,.35v7.75h9.92l-.7,3.49h-9.22v16.62c0,3.77,1.68,5.8,5.59,5.8,1.89,0,3.91-.35,4.89-.7v.35c-1.4,2.31-5.8,5.45-10.89,5.45s-8.38-2.23-8.38-8.31Z"/>
        <path class="cls-1" d="M167.23,44.97v.28c-.63,1.75-3.49,4.54-7.47,4.54-4.96,0-7.54-3.35-7.54-7.33,0-3.56,1.89-5.8,2.86-6.14,1.4-.56,8.03-2.44,11.52-3.28v.49c-1.68,.63-3.7,1.47-4.68,2.65-.7,1.05-1.12,2.58-1.12,4.12,0,3.7,1.19,5.31,3.84,5.31,.91,0,2.16-.35,2.58-.63Zm-9.29-22.27c2.02,0,3.7,1.68,3.7,3.7s-1.68,3.77-3.7,3.77-3.7-1.68-3.7-3.77,1.61-3.7,3.7-3.7Zm.84-1.61c2.09-1.54,6.01-3.07,8.94-3.07,6.49,0,9.43,3.14,9.43,8.94v15.71c0,2.23,.84,3.07,2.65,3.07,.7,0,1.54-.21,2.03-.49v.35c-.84,1.96-3.14,4.19-7.05,4.19-4.12,0-6.35-2.51-6.35-7.12v-15.29c0-4.33-3.49-6.08-9.64-6.08v-.21Z"/>
        <path class="cls-1" d="M193.34,49.79c-2.72,0-6.98-.98-8.66-1.75l-.42-9.5h.49c1.12,4.4,5.24,9.78,8.59,10.82v.42Zm1.26-31.21c-1.33,.28-3.07,1.75-3.07,4.19,0,3.49,3.28,4.96,6.91,6.91,4.54,2.58,8.59,5.17,8.59,9.78,0,6.56-4.89,9.98-11.31,10.33v-.42c2.44-.42,4.33-1.95,4.33-5.03,0-3.28-3.35-4.82-7.19-6.84-3.91-2.09-8.1-4.54-8.1-10.05,0-5.1,4.05-8.73,9.85-9.36v.49Zm2.3-.56c3.21,0,6.98,.84,8.1,1.33l.42,8.52h-.49c-1.33-4.4-4.75-8.8-8.03-9.36v-.49Z"/>
      </g>
    </g>
  </g>
</svg>