<svg xmlns="http://www.w3.org/2000/svg" width="235.35" height="96.169" viewBox="0 0 235.35 96.169">
  <g id="Group_22" data-name="Group 22" transform="translate(1490.164 -183.992)">
    <text id="WEALTH" transform="translate(-1372.167 273.161)" fill="#eceae9" font-size="24" font-family="Nexa-Book, Nexa" letter-spacing="1.02em"><tspan x="-113.184" y="0">WEALTH</tspan></text>
    <g id="Group_7" data-name="Group 7" transform="translate(-1490.164 183.992)">
      <path id="Path_3" data-name="Path 3" d="M-1470.319,214.29c-4.207.636-9.922,5-9.922,14.13,0,10.4,5.4,13.732,10.8,13.732,4.366,0,8.255-1.9,9.922-4.286l.4.317c-1.349,4.6-5.478,11.511-15.4,11.511-10.24,0-15.637-7.7-15.637-16.829,0-11.271,10.4-18.575,19.845-19.21Zm5.715.08a4.744,4.744,0,0,1,4.683,4.684,4.76,4.76,0,0,1-4.683,4.762,4.776,4.776,0,0,1-4.762-4.762A4.761,4.761,0,0,1-1464.6,214.37Z" transform="translate(1490.164 -193.096)" fill="#fff"/>
      <path id="Path_4" data-name="Path 4" d="M-1438.34,194.549c0-2.62-.714-4.127-3.811-5.794v-.477l13.892-4.287.159.159c-.08,3.255-.239,7.858-.239,11.033v37.627c0,4.683,1.191,6.033,4.6,6.588v.556h-19.131V239.4c3.651-.555,4.525-1.747,4.525-6.588Z" transform="translate(1475.648 -183.992)" fill="#fff"/>
      <path id="Path_5" data-name="Path 5" d="M-1393.5,244.18v.319c-.714,1.984-3.969,5.159-8.493,5.159-5.636,0-8.573-3.811-8.573-8.335,0-4.048,2.143-6.589,3.254-6.985,1.588-.636,9.129-2.779,13.1-3.732v.556c-1.9.715-4.207,1.667-5.318,3.016a8.767,8.767,0,0,0-1.27,4.684c0,4.207,1.349,6.033,4.366,6.033A6.893,6.893,0,0,0-1393.5,244.18Zm-10.557-25.322a4.236,4.236,0,0,1,4.207,4.207,4.252,4.252,0,0,1-4.207,4.287,4.2,4.2,0,0,1-4.207-4.287A4.184,4.184,0,0,1-1404.06,218.858Zm.952-1.826a19.981,19.981,0,0,1,10.161-3.493c7.382,0,10.717,3.572,10.717,10.161v17.86c0,2.54.953,3.492,3.016,3.492a5.2,5.2,0,0,0,2.3-.554v.4a8.39,8.39,0,0,1-8.018,4.764c-4.683,0-7.224-2.858-7.224-8.1V224.178c0-4.922-3.969-6.907-10.954-6.907Z" transform="translate(1465.736 -193.06)" fill="#fff"/>
      <path id="Path_6" data-name="Path 6" d="M-1345.194,241.924c0,4.683,1.9,6.033,5.318,6.508v.556h-19.845v-.556c3.651-.555,4.6-1.747,4.6-6.588V223.983c0-2.62-.794-4.127-3.81-5.715v-.477l13.574-4.366.159.159Zm5.4-21.354a4.962,4.962,0,0,1,1.033-3.1c-.08-.158-.4-.238-.636-.238-1.111,0-2.7.794-3.89,2.937v-.317c.953-3.176,4.207-6.351,7.7-6.351,4.049,0,6.191,2.382,6.191,6.033,0,3.493-2.3,5.716-5.477,5.716A4.609,4.609,0,0,1-1339.8,220.57Z" transform="translate(1450.13 -193.025)" fill="#fff"/>
      <path id="Path_7" data-name="Path 7" d="M-1308.162,216.85c0-2.778-1.032-3.969-2.143-4.843a13.269,13.269,0,0,0-1.906-1.27v-.4l14.051-4.366.159.159c-.08,3.255-.239,7.858-.239,11.033v17.226c0,4.683,1.349,6.033,4.842,6.588v.556h-19.369v-.556c3.652-.555,4.6-1.747,4.6-6.588Zm4.843-27.7a5.592,5.592,0,0,1,5.715,5.478,5.592,5.592,0,0,1-5.715,5.477,5.524,5.524,0,0,1-5.637-5.477A5.524,5.524,0,0,1-1303.319,189.146Z" transform="translate(1435.72 -185.574)" fill="#fff"/>
      <path id="Path_8" data-name="Path 8" d="M-1277.867,236.522v-21.83h-4.207V213.58l13.335-12.065.873.4v8.811h11.272l-.794,3.969h-10.478v18.892c0,4.286,1.905,6.589,6.35,6.589a19.278,19.278,0,0,0,5.557-.794v.4c-1.587,2.621-6.588,6.193-12.383,6.193C-1274.215,245.968-1277.867,243.428-1277.867,236.522Z" transform="translate(1426.3 -189.37)" fill="#fff"/>
      <path id="Path_9" data-name="Path 9" d="M-1223.436,244.18v.319c-.715,1.984-3.969,5.159-8.494,5.159-5.636,0-8.573-3.811-8.573-8.335,0-4.048,2.143-6.589,3.254-6.985,1.588-.636,9.129-2.779,13.1-3.732v.556c-1.905.715-4.208,1.667-5.318,3.016a8.762,8.762,0,0,0-1.27,4.684c0,4.207,1.35,6.033,4.366,6.033A6.9,6.9,0,0,0-1223.436,244.18Zm-10.558-25.322a4.235,4.235,0,0,1,4.206,4.207,4.251,4.251,0,0,1-4.206,4.287,4.2,4.2,0,0,1-4.207-4.287A4.184,4.184,0,0,1-1233.994,218.858Zm.952-1.826a19.986,19.986,0,0,1,10.161-3.493c7.381,0,10.715,3.572,10.715,10.161v17.86c0,2.54.952,3.492,3.017,3.492a5.2,5.2,0,0,0,2.3-.554v.4a8.393,8.393,0,0,1-8.019,4.764c-4.682,0-7.223-2.858-7.223-8.1V224.178c0-4.922-3.969-6.907-10.955-6.907Z" transform="translate(1413.542 -193.06)" fill="#fff"/>
      <path id="Path_10" data-name="Path 10" d="M-1177.616,249.659a30.828,30.828,0,0,1-9.844-1.986l-.475-10.794h.555c1.271,5,5.953,11.113,9.765,12.3Zm1.428-35.483a4.787,4.787,0,0,0-3.493,4.762c0,3.969,3.732,5.636,7.859,7.859,5.16,2.937,9.764,5.875,9.764,11.113,0,7.462-5.556,11.351-12.86,11.749v-.477c2.778-.475,4.922-2.222,4.922-5.716,0-3.73-3.811-5.476-8.176-7.779-4.445-2.381-9.208-5.159-9.208-11.431,0-5.794,4.6-9.922,11.192-10.637Zm2.619-.636a30.24,30.24,0,0,1,9.208,1.509l.477,9.684h-.557c-1.507-5-5.4-10-9.129-10.636Z" transform="translate(1397.409 -193.06)" fill="#fff"/>
    </g>
  </g>
</svg>
